<?xml version="1.0" encoding="UTF-8" standalone="no"?>
<svg
   xmlns:dc="http://purl.org/dc/elements/1.1/"
   xmlns:cc="http://creativecommons.org/ns#"
   xmlns:rdf="http://www.w3.org/1999/02/22-rdf-syntax-ns#"
   xmlns:svg="http://www.w3.org/2000/svg"
   xmlns="http://www.w3.org/2000/svg"
   xmlns:sodipodi="http://sodipodi.sourceforge.net/DTD/sodipodi-0.dtd"
   xmlns:inkscape="http://www.inkscape.org/namespaces/inkscape"
   id="svg8"
   version="1.1"
   viewBox="0 0 500 500"
   height="500"
   width="500"
   sodipodi:docname="example.svg"
   inkscape:version="0.92.1 r15371">
  <circle
     style="fill:#000080;stroke-width:0.36185661"
     r="150.82481"
     cy="250.53058"
     cx="250.1424"
     id="path12" />
  <path
     style="fill:#ff0000;stroke-width:0.36185661"
     d="m 239.04734,220.94002 -12.13859,2.41841 -4.88932,11.37051 -6.05108,-10.79714 -12.32489,-1.13634 8.39882,-9.09142 -2.72788,-12.07282 11.24184,5.17835 10.63896,-6.32507 -1.45098,12.29182 z"
     id="path14-3-6-7-5"
     inkscape:connector-curvature="0" />
  <path
     sodipodi:type="star"
     style="fill:#ff0000"
     id="path3906"
     sodipodi:sides="5"
     sodipodi:cx="220.97087"
     sodipodi:cy="273.78576"
     sodipodi:r1="19.446568"
     sodipodi:r2="15.732604"
     sodipodi:arg1="1.2977876"
     sodipodi:arg2="1.9261062"
     inkscape:flatsided="true"
     inkscape:rounded="0"
     inkscape:randomized="0"
     d="m 226.21425,292.51211 -21.4329,-7.95284 0.94047,-22.84145 22.01414,-6.16396 12.66502,19.03192 z"
     inkscape:transform-center-x="-1.6202925"
     inkscape:transform-center-y="0.24721711" />
  <path
     sodipodi:type="star"
     style="fill:#00ff00"
     id="path3906-3"
     sodipodi:sides="5"
     sodipodi:cx="277.02772"
     sodipodi:cy="213.61423"
     sodipodi:r1="19.446568"
     sodipodi:r2="15.732604"
     sodipodi:arg1="1.2977876"
     sodipodi:arg2="1.9261062"
     inkscape:flatsided="true"
     inkscape:rounded="0"
     inkscape:randomized="0"
     d="m 282.27109,232.34057 -21.4329,-7.95284 0.94047,-22.84145 22.01414,-6.16396 12.66501,19.03192 z"
     inkscape:transform-center-x="-1.6202925"
     inkscape:transform-center-y="0.24721711" />
  <path
     style="fill:#ff00ff;stroke-width:0.36185661"
     d="m 294.85185,278.61716 -12.1386,2.41841 -4.88932,11.37051 -6.05108,-10.79714 -12.32489,-1.13634 8.39882,-9.09142 -2.72788,-12.07282 11.24184,5.17835 10.63896,-6.32507 -1.45098,12.29182 z"
     id="path14-3-6-7-5-5"
     inkscape:connector-curvature="0" />
</svg>
